<?xml version="1.0" encoding="iso-8859-1"?>
<!-- Generator: Adobe Illustrator 19.0.0, SVG Export Plug-In . SVG Version: 6.00 Build 0)  -->
<svg version="1.1" id="Layer_1" xmlns="http://www.w3.org/2000/svg" xmlns:xlink="http://www.w3.org/1999/xlink" x="0px" y="0px"
	 viewBox="0 0 511.99 511.99" style="enable-background:new 0 0 511.99 511.99;" xml:space="preserve">
<g>
	<path style="fill:#BCCCD3;" d="M71.248,506.603c0,2.485-1.657,4.142-4.142,4.142l0,0c-2.485,0-4.142-1.657-4.142-4.142V15.329
		c0-2.485,1.657-4.142,4.142-4.142l0,0c2.485,0,4.142,1.657,4.142,4.142V506.603z"/>
	<circle style="fill:#BCCCD3;" cx="67.109" cy="12.844" r="11.598"/>
	<path style="fill:#BCCCD3;" d="M163.207,506.603c0,2.485-1.657,4.142-4.142,4.142l0,0c-2.485,0-4.142-1.657-4.142-4.142V15.329
		c0-2.485,1.657-4.142,4.142-4.142l0,0c2.485,0,4.142,1.657,4.142,4.142V506.603z"/>
	<circle style="fill:#BCCCD3;" cx="159.059" cy="12.844" r="11.598"/>
	<path style="fill:#BCCCD3;" d="M255.165,506.603c0,2.485-1.657,4.142-4.142,4.142l0,0c-2.485,0-4.142-1.657-4.142-4.142V15.329
		c0-2.485,1.657-4.142,4.142-4.142l0,0c2.485,0,4.142,1.657,4.142,4.142V506.603z"/>
	<circle style="fill:#BCCCD3;" cx="251.019" cy="12.844" r="11.598"/>
</g>
<g>
	<path style="fill:#12DB55;" d="M347.124,506.603c0,2.485-1.657,4.142-4.142,4.142l0,0c-2.485,0-4.142-1.657-4.142-4.142V15.329
		c0-2.485,1.657-4.142,4.142-4.142l0,0c2.485,0,4.142,1.657,4.142,4.142V506.603z"/>
	<circle style="fill:#12DB55;" cx="342.979" cy="12.844" r="11.598"/>
</g>
<g>
	<path style="fill:#BCCCD3;" d="M439.911,506.603c0,2.485-1.657,4.142-4.142,4.142l0,0c-2.485,0-4.142-1.657-4.142-4.142V15.329
		c0-2.485,1.657-4.142,4.142-4.142l0,0c2.485,0,4.142,1.657,4.142,4.142V506.603z"/>
	<circle style="fill:#BCCCD3;" cx="435.769" cy="12.844" r="11.598"/>
</g>
<g>
	<path style="fill:#FF5B00;" d="M157.408,415.473L157.408,415.473c-2.22,0-4.325-0.878-5.882-2.452l-88.587-89.366l-48.796,48.796
		c-3.239,3.239-8.475,3.239-11.714,0s-3.239-8.475,0-11.714l54.678-54.678c1.557-1.549,3.662-2.427,5.857-2.427
		c0.008,0,0.008,0,0.017,0c2.204,0.008,4.316,0.886,5.865,2.452l88.57,89.349l182.169-182.981c1.557-1.557,3.662-2.436,5.865-2.436
		h0.017c2.204,0,4.308,0.87,5.857,2.427l84.478,84.478l62.076-61.314c3.264-3.214,8.5-3.19,11.723,0.075
		c3.214,3.256,3.181,8.5-0.075,11.714l-67.933,67.105c-3.248,3.206-8.459,3.19-11.681-0.041l-84.428-84.428L163.281,413.037
		C161.724,414.595,159.611,415.473,157.408,415.473z"/>
	<circle style="fill:#FF5B00;" cx="67.109" cy="307.77" r="26.511"/>
</g>
<path style="fill:#FF8500;" d="M39.767,307.774c0-14.912,12.427-26.511,26.511-26.511"/>
<circle style="fill:#FF5B00;" cx="344.639" cy="214.99" r="26.511"/>
<path style="fill:#FF8500;" d="M317.299,214.987c0-14.912,12.427-26.511,26.511-26.511"/>
<circle style="fill:#FF5B00;" cx="159.059" cy="403.05" r="26.511"/>
<path style="fill:#FF8500;" d="M131.725,403.046c0-14.912,12.427-26.511,26.511-26.511"/>
<circle style="fill:#FF5B00;" cx="435.769" cy="301.98" r="26.511"/>
<path style="fill:#FF8500;" d="M408.43,301.975c0-14.912,12.427-26.511,26.511-26.511"/>
<g>
</g>
<g>
</g>
<g>
</g>
<g>
</g>
<g>
</g>
<g>
</g>
<g>
</g>
<g>
</g>
<g>
</g>
<g>
</g>
<g>
</g>
<g>
</g>
<g>
</g>
<g>
</g>
<g>
</g>
</svg>
